<?xml version="1.0" encoding="UTF-8"?>
<svg id="Layer_1" data-name="Layer 1" xmlns="http://www.w3.org/2000/svg" viewBox="0 0 99.2126 70.86614">
  <defs>
    <style>
      .cls-1 {
        fill: #fff;
      }
    </style>
  </defs>
  <path class="cls-1" d="M45.2374,38.67672c0,4.19531-.73926,7.78125-2.2168,10.75879-1.47852,2.97852-3.55957,5.24902-6.24365,6.81445-2.68457,1.56445-5.84131,2.34766-9.47119,2.34766-3.65137,0-6.81934-.7832-9.50391-2.34766-2.68457-1.56543-4.75977-3.83594-6.22705-6.81445-1.46729-2.97754-2.20068-6.56348-2.20068-10.75879v-6.45508c0-4.21631.7334-7.81348,2.20068-10.7915,1.46729-2.97754,3.54248-5.24902,6.22705-6.81396s5.85254-2.34766,9.50391-2.34766c3.62988,0,6.78662.78271,9.47119,2.34766,2.68408,1.56494,4.76514,3.83643,6.24365,6.81396,1.47754,2.97803,2.2168,6.5752,2.2168,10.7915v6.45508ZM39.20615,32.18893c0-3.28174-.52734-5.99902-1.58154-8.15088s-2.47266-3.76562-4.25439-4.84131c-1.78271-1.07617-3.8042-1.61377-6.06445-1.61377-2.26074,0-4.28711.5376-6.08057,1.61377-1.79297,1.07568-3.21143,2.68945-4.25439,4.84131-1.04346,2.15186-1.56494,4.86914-1.56494,8.15088v6.48779c0,3.26074.52148,5.97754,1.56494,8.15039,1.04297,2.17383,2.46143,3.79395,4.25439,4.8584,1.79346,1.06543,3.81982,1.59766,6.08057,1.59766,2.26025,0,4.28174-.53223,6.06445-1.59766,1.78174-1.06445,3.2002-2.68457,4.25439-4.8584,1.0542-2.17285,1.58154-4.88965,1.58154-8.15039v-6.48779Z"/>
  <path class="cls-1" d="M55.76816,13.18161h14.47559c4.3252,0,7.93945.84229,10.84082,2.52637,2.90137,1.68506,5.08594,4.1792,6.55273,7.48242,1.46777,3.3042,2.20117,7.37988,2.20117,12.22559,0,4.82617-.7334,8.89551-2.20117,12.20996-1.4668,3.31543-3.65137,5.82031-6.55273,7.51562s-6.51562,2.54297-10.84082,2.54297h-14.47559V13.18161ZM61.76719,18.43063v33.97168h8.05273c2.30371,0,4.3252-.35254,6.06445-1.05957,1.73828-.70605,3.17285-1.76562,4.30371-3.17871,1.12988-1.41211,1.9834-3.17285,2.55957-5.28125.5752-2.1084.86328-4.58594.86328-7.43359,0-3.78174-.50488-6.93311-1.51562-9.45459s-2.53809-4.41211-4.58105-5.67334c-2.04297-1.26025-4.6084-1.89062-7.69434-1.89062h-8.05273Z"/>
</svg>